<mxfile host="app.diagrams.net" modified="2024-04-01T17:22:16.871Z" agent="Mozilla/5.0 (Windows NT 10.0; Win64; x64) AppleWebKit/537.36 (KHTML, like Gecko) Chrome/122.0.0.0 Safari/537.36 Edg/122.0.0.0" etag="sUkOYw2i68AvxOR0rZ1h" version="24.2.1" type="device">
  <diagram name="Page-1" id="gTyWnDy3WlFb4XWQPKvH">
    <mxGraphModel dx="1426" dy="785" grid="1" gridSize="10" guides="1" tooltips="1" connect="1" arrows="1" fold="1" page="1" pageScale="1" pageWidth="850" pageHeight="1100" math="0" shadow="0">
      <root>
        <mxCell id="0" />
        <mxCell id="1" parent="0" />
        <mxCell id="d3DxkdfmubJ-OFH4Wotc-1" value="" style="rounded=0;whiteSpace=wrap;html=1;" vertex="1" parent="1">
          <mxGeometry x="80" y="120" width="70" height="120" as="geometry" />
        </mxCell>
        <mxCell id="d3DxkdfmubJ-OFH4Wotc-2" value="" style="endArrow=none;html=1;rounded=0;entryX=0.986;entryY=0.158;entryDx=0;entryDy=0;entryPerimeter=0;" edge="1" parent="1" target="d3DxkdfmubJ-OFH4Wotc-1">
          <mxGeometry width="50" height="50" relative="1" as="geometry">
            <mxPoint x="80" y="140" as="sourcePoint" />
            <mxPoint x="160" y="140" as="targetPoint" />
          </mxGeometry>
        </mxCell>
        <mxCell id="d3DxkdfmubJ-OFH4Wotc-3" value="" style="rounded=0;whiteSpace=wrap;html=1;" vertex="1" parent="1">
          <mxGeometry x="290" y="360" width="70" height="120" as="geometry" />
        </mxCell>
        <mxCell id="d3DxkdfmubJ-OFH4Wotc-4" value="" style="endArrow=none;html=1;rounded=0;entryX=0.986;entryY=0.158;entryDx=0;entryDy=0;entryPerimeter=0;" edge="1" parent="1" target="d3DxkdfmubJ-OFH4Wotc-3">
          <mxGeometry width="50" height="50" relative="1" as="geometry">
            <mxPoint x="290" y="380" as="sourcePoint" />
            <mxPoint x="370" y="380" as="targetPoint" />
          </mxGeometry>
        </mxCell>
        <mxCell id="d3DxkdfmubJ-OFH4Wotc-5" value="" style="rounded=0;whiteSpace=wrap;html=1;" vertex="1" parent="1">
          <mxGeometry x="490" y="120" width="70" height="120" as="geometry" />
        </mxCell>
        <mxCell id="d3DxkdfmubJ-OFH4Wotc-6" value="" style="endArrow=none;html=1;rounded=0;entryX=0.986;entryY=0.158;entryDx=0;entryDy=0;entryPerimeter=0;" edge="1" parent="1" target="d3DxkdfmubJ-OFH4Wotc-5">
          <mxGeometry width="50" height="50" relative="1" as="geometry">
            <mxPoint x="490" y="140" as="sourcePoint" />
            <mxPoint x="570" y="140" as="targetPoint" />
          </mxGeometry>
        </mxCell>
        <mxCell id="d3DxkdfmubJ-OFH4Wotc-7" value="" style="rounded=0;whiteSpace=wrap;html=1;" vertex="1" parent="1">
          <mxGeometry x="290" y="120" width="70" height="120" as="geometry" />
        </mxCell>
        <mxCell id="d3DxkdfmubJ-OFH4Wotc-8" value="" style="ellipse;whiteSpace=wrap;html=1;" vertex="1" parent="1">
          <mxGeometry x="270" y="140" width="40" height="10" as="geometry" />
        </mxCell>
        <mxCell id="d3DxkdfmubJ-OFH4Wotc-9" value="" style="rounded=0;whiteSpace=wrap;html=1;" vertex="1" parent="1">
          <mxGeometry x="270" y="170" width="40" height="10" as="geometry" />
        </mxCell>
        <mxCell id="d3DxkdfmubJ-OFH4Wotc-10" value="" style="rounded=0;whiteSpace=wrap;html=1;" vertex="1" parent="1">
          <mxGeometry x="270" y="200" width="40" height="10" as="geometry" />
        </mxCell>
        <mxCell id="d3DxkdfmubJ-OFH4Wotc-11" value="" style="rounded=0;whiteSpace=wrap;html=1;" vertex="1" parent="1">
          <mxGeometry x="80" y="360" width="70" height="120" as="geometry" />
        </mxCell>
        <mxCell id="d3DxkdfmubJ-OFH4Wotc-12" value="" style="ellipse;whiteSpace=wrap;html=1;" vertex="1" parent="1">
          <mxGeometry x="60" y="380" width="40" height="10" as="geometry" />
        </mxCell>
        <mxCell id="d3DxkdfmubJ-OFH4Wotc-13" value="" style="rounded=0;whiteSpace=wrap;html=1;" vertex="1" parent="1">
          <mxGeometry x="60" y="410" width="40" height="10" as="geometry" />
        </mxCell>
        <mxCell id="d3DxkdfmubJ-OFH4Wotc-14" value="" style="rounded=0;whiteSpace=wrap;html=1;" vertex="1" parent="1">
          <mxGeometry x="60" y="440" width="40" height="10" as="geometry" />
        </mxCell>
        <mxCell id="d3DxkdfmubJ-OFH4Wotc-15" value="" style="rounded=0;whiteSpace=wrap;html=1;" vertex="1" parent="1">
          <mxGeometry x="710" y="120" width="70" height="120" as="geometry" />
        </mxCell>
        <mxCell id="d3DxkdfmubJ-OFH4Wotc-16" value="" style="ellipse;whiteSpace=wrap;html=1;" vertex="1" parent="1">
          <mxGeometry x="690" y="140" width="40" height="10" as="geometry" />
        </mxCell>
        <mxCell id="d3DxkdfmubJ-OFH4Wotc-17" value="" style="rounded=0;whiteSpace=wrap;html=1;" vertex="1" parent="1">
          <mxGeometry x="690" y="170" width="40" height="10" as="geometry" />
        </mxCell>
        <mxCell id="d3DxkdfmubJ-OFH4Wotc-18" value="" style="rounded=0;whiteSpace=wrap;html=1;" vertex="1" parent="1">
          <mxGeometry x="690" y="200" width="40" height="10" as="geometry" />
        </mxCell>
        <mxCell id="d3DxkdfmubJ-OFH4Wotc-20" value="" style="rounded=0;whiteSpace=wrap;html=1;" vertex="1" parent="1">
          <mxGeometry x="720" y="570" width="70" height="120" as="geometry" />
        </mxCell>
        <mxCell id="d3DxkdfmubJ-OFH4Wotc-21" value="" style="ellipse;whiteSpace=wrap;html=1;" vertex="1" parent="1">
          <mxGeometry x="700" y="590" width="40" height="10" as="geometry" />
        </mxCell>
        <mxCell id="d3DxkdfmubJ-OFH4Wotc-22" value="" style="rounded=0;whiteSpace=wrap;html=1;" vertex="1" parent="1">
          <mxGeometry x="700" y="620" width="40" height="10" as="geometry" />
        </mxCell>
        <mxCell id="d3DxkdfmubJ-OFH4Wotc-23" value="" style="rounded=0;whiteSpace=wrap;html=1;" vertex="1" parent="1">
          <mxGeometry x="700" y="650" width="40" height="10" as="geometry" />
        </mxCell>
        <mxCell id="d3DxkdfmubJ-OFH4Wotc-24" value="" style="rounded=0;whiteSpace=wrap;html=1;" vertex="1" parent="1">
          <mxGeometry x="710" y="360" width="70" height="120" as="geometry" />
        </mxCell>
        <mxCell id="d3DxkdfmubJ-OFH4Wotc-25" value="" style="endArrow=none;html=1;rounded=0;entryX=0.986;entryY=0.158;entryDx=0;entryDy=0;entryPerimeter=0;" edge="1" parent="1" target="d3DxkdfmubJ-OFH4Wotc-24">
          <mxGeometry width="50" height="50" relative="1" as="geometry">
            <mxPoint x="710" y="380" as="sourcePoint" />
            <mxPoint x="790" y="380" as="targetPoint" />
          </mxGeometry>
        </mxCell>
        <mxCell id="d3DxkdfmubJ-OFH4Wotc-26" value="User" style="text;html=1;align=center;verticalAlign=middle;whiteSpace=wrap;rounded=0;" vertex="1" parent="1">
          <mxGeometry x="280" y="80" width="60" height="30" as="geometry" />
        </mxCell>
        <mxCell id="d3DxkdfmubJ-OFH4Wotc-27" value="SignIn" style="text;html=1;align=center;verticalAlign=middle;whiteSpace=wrap;rounded=0;" vertex="1" parent="1">
          <mxGeometry x="70" y="80" width="60" height="30" as="geometry" />
        </mxCell>
        <mxCell id="d3DxkdfmubJ-OFH4Wotc-28" value="Authenticator" style="text;html=1;align=center;verticalAlign=middle;whiteSpace=wrap;rounded=0;" vertex="1" parent="1">
          <mxGeometry x="80" y="320" width="60" height="30" as="geometry" />
        </mxCell>
        <mxCell id="d3DxkdfmubJ-OFH4Wotc-29" value="&lt;p style=&quot;line-height: 120%;&quot;&gt;AuthenticateUser&lt;/p&gt;" style="text;html=1;align=center;verticalAlign=middle;whiteSpace=wrap;rounded=0;" vertex="1" parent="1">
          <mxGeometry x="290" y="320" width="60" height="30" as="geometry" />
        </mxCell>
        <mxCell id="d3DxkdfmubJ-OFH4Wotc-30" value="AddProduct" style="text;html=1;align=center;verticalAlign=middle;whiteSpace=wrap;rounded=0;" vertex="1" parent="1">
          <mxGeometry x="495" y="80" width="60" height="30" as="geometry" />
        </mxCell>
        <mxCell id="d3DxkdfmubJ-OFH4Wotc-31" value="Cart" style="text;html=1;align=center;verticalAlign=middle;whiteSpace=wrap;rounded=0;" vertex="1" parent="1">
          <mxGeometry x="700" y="80" width="60" height="30" as="geometry" />
        </mxCell>
        <mxCell id="d3DxkdfmubJ-OFH4Wotc-32" value="Checkout" style="text;html=1;align=center;verticalAlign=middle;whiteSpace=wrap;rounded=0;" vertex="1" parent="1">
          <mxGeometry x="710" y="310" width="60" height="30" as="geometry" />
        </mxCell>
        <mxCell id="d3DxkdfmubJ-OFH4Wotc-33" value="Order" style="text;html=1;align=center;verticalAlign=middle;whiteSpace=wrap;rounded=0;" vertex="1" parent="1">
          <mxGeometry x="720" y="530" width="60" height="30" as="geometry" />
        </mxCell>
        <mxCell id="d3DxkdfmubJ-OFH4Wotc-35" value="" style="html=1;verticalAlign=bottom;endArrow=open;dashed=1;endSize=8;curved=0;rounded=0;entryX=0.986;entryY=0.442;entryDx=0;entryDy=0;entryPerimeter=0;" edge="1" parent="1" target="d3DxkdfmubJ-OFH4Wotc-1">
          <mxGeometry relative="1" as="geometry">
            <mxPoint x="270" y="174.5" as="sourcePoint" />
            <mxPoint x="190" y="174.5" as="targetPoint" />
          </mxGeometry>
        </mxCell>
        <mxCell id="d3DxkdfmubJ-OFH4Wotc-36" value="" style="html=1;verticalAlign=bottom;endArrow=open;dashed=1;endSize=8;curved=0;rounded=0;exitX=0.5;exitY=1;exitDx=0;exitDy=0;" edge="1" parent="1" source="d3DxkdfmubJ-OFH4Wotc-1">
          <mxGeometry relative="1" as="geometry">
            <mxPoint x="121" y="261.5" as="sourcePoint" />
            <mxPoint x="115" y="310" as="targetPoint" />
          </mxGeometry>
        </mxCell>
        <mxCell id="d3DxkdfmubJ-OFH4Wotc-37" value="" style="html=1;verticalAlign=bottom;endArrow=open;dashed=1;endSize=8;curved=0;rounded=0;exitX=1;exitY=0.5;exitDx=0;exitDy=0;entryX=0;entryY=0.5;entryDx=0;entryDy=0;" edge="1" parent="1" source="d3DxkdfmubJ-OFH4Wotc-11" target="d3DxkdfmubJ-OFH4Wotc-3">
          <mxGeometry relative="1" as="geometry">
            <mxPoint x="240" y="360" as="sourcePoint" />
            <mxPoint x="240" y="430" as="targetPoint" />
          </mxGeometry>
        </mxCell>
        <mxCell id="d3DxkdfmubJ-OFH4Wotc-38" value="" style="html=1;verticalAlign=bottom;endArrow=open;dashed=1;endSize=8;curved=0;rounded=0;exitX=0.5;exitY=1;exitDx=0;exitDy=0;" edge="1" parent="1">
          <mxGeometry relative="1" as="geometry">
            <mxPoint x="739.5" y="240" as="sourcePoint" />
            <mxPoint x="739.5" y="310" as="targetPoint" />
          </mxGeometry>
        </mxCell>
        <mxCell id="d3DxkdfmubJ-OFH4Wotc-39" value="" style="html=1;verticalAlign=bottom;endArrow=open;dashed=1;endSize=8;curved=0;rounded=0;exitX=0.617;exitY=-0.1;exitDx=0;exitDy=0;entryX=0.5;entryY=1;entryDx=0;entryDy=0;exitPerimeter=0;" edge="1" parent="1" source="d3DxkdfmubJ-OFH4Wotc-29" target="d3DxkdfmubJ-OFH4Wotc-7">
          <mxGeometry relative="1" as="geometry">
            <mxPoint x="260" y="250" as="sourcePoint" />
            <mxPoint x="260" y="320" as="targetPoint" />
          </mxGeometry>
        </mxCell>
        <mxCell id="d3DxkdfmubJ-OFH4Wotc-40" value="" style="html=1;verticalAlign=bottom;endArrow=open;dashed=1;endSize=8;curved=0;rounded=0;exitX=1;exitY=0.5;exitDx=0;exitDy=0;entryX=0;entryY=0.5;entryDx=0;entryDy=0;" edge="1" parent="1" source="d3DxkdfmubJ-OFH4Wotc-7" target="d3DxkdfmubJ-OFH4Wotc-5">
          <mxGeometry relative="1" as="geometry">
            <mxPoint x="452" y="227" as="sourcePoint" />
            <mxPoint x="450" y="150" as="targetPoint" />
          </mxGeometry>
        </mxCell>
        <mxCell id="d3DxkdfmubJ-OFH4Wotc-41" value="" style="html=1;verticalAlign=bottom;endArrow=open;dashed=1;endSize=8;curved=0;rounded=0;exitX=1;exitY=0.5;exitDx=0;exitDy=0;entryX=0;entryY=0.5;entryDx=0;entryDy=0;" edge="1" parent="1">
          <mxGeometry relative="1" as="geometry">
            <mxPoint x="560" y="174.5" as="sourcePoint" />
            <mxPoint x="690" y="174.5" as="targetPoint" />
          </mxGeometry>
        </mxCell>
        <mxCell id="d3DxkdfmubJ-OFH4Wotc-42" value="" style="html=1;verticalAlign=bottom;endArrow=open;dashed=1;endSize=8;curved=0;rounded=0;exitX=0.5;exitY=1;exitDx=0;exitDy=0;entryX=0.383;entryY=0.2;entryDx=0;entryDy=0;entryPerimeter=0;" edge="1" parent="1" source="d3DxkdfmubJ-OFH4Wotc-24" target="d3DxkdfmubJ-OFH4Wotc-33">
          <mxGeometry relative="1" as="geometry">
            <mxPoint x="720" y="510" as="sourcePoint" />
            <mxPoint x="680" y="510.25" as="targetPoint" />
          </mxGeometry>
        </mxCell>
        <mxCell id="d3DxkdfmubJ-OFH4Wotc-43" value="" style="rounded=0;whiteSpace=wrap;html=1;" vertex="1" parent="1">
          <mxGeometry x="510" y="570" width="70" height="120" as="geometry" />
        </mxCell>
        <mxCell id="d3DxkdfmubJ-OFH4Wotc-44" value="" style="endArrow=none;html=1;rounded=0;entryX=0.986;entryY=0.158;entryDx=0;entryDy=0;entryPerimeter=0;" edge="1" parent="1" target="d3DxkdfmubJ-OFH4Wotc-43">
          <mxGeometry width="50" height="50" relative="1" as="geometry">
            <mxPoint x="510" y="590" as="sourcePoint" />
            <mxPoint x="590" y="590" as="targetPoint" />
          </mxGeometry>
        </mxCell>
        <mxCell id="d3DxkdfmubJ-OFH4Wotc-45" value="" style="html=1;verticalAlign=bottom;endArrow=open;dashed=1;endSize=8;curved=0;rounded=0;entryX=0.986;entryY=0.442;entryDx=0;entryDy=0;entryPerimeter=0;" edge="1" parent="1">
          <mxGeometry relative="1" as="geometry">
            <mxPoint x="701" y="625.75" as="sourcePoint" />
            <mxPoint x="580" y="624.25" as="targetPoint" />
          </mxGeometry>
        </mxCell>
        <mxCell id="d3DxkdfmubJ-OFH4Wotc-46" value="NotifyUser" style="text;html=1;align=center;verticalAlign=middle;whiteSpace=wrap;rounded=0;" vertex="1" parent="1">
          <mxGeometry x="510" y="540" width="60" height="30" as="geometry" />
        </mxCell>
        <mxCell id="d3DxkdfmubJ-OFH4Wotc-47" value="" style="html=1;verticalAlign=bottom;endArrow=open;dashed=1;endSize=8;curved=0;rounded=0;exitX=0.617;exitY=-0.1;exitDx=0;exitDy=0;entryX=0.75;entryY=1;entryDx=0;entryDy=0;exitPerimeter=0;" edge="1" parent="1" target="d3DxkdfmubJ-OFH4Wotc-7">
          <mxGeometry relative="1" as="geometry">
            <mxPoint x="542" y="540" as="sourcePoint" />
            <mxPoint x="540" y="463" as="targetPoint" />
            <Array as="points">
              <mxPoint x="540" y="300" />
              <mxPoint x="343" y="300" />
            </Array>
          </mxGeometry>
        </mxCell>
      </root>
    </mxGraphModel>
  </diagram>
</mxfile>
